{
  "accessors": [
    {
      "bufferView": 2,
      "componentType": 5126,
      "count": 2645,
      "max": [
        1,
        0.603954017162323,
        0.24914099276065826
      ],
      "min": [
        -1,
        -0.603954017162323,
        -0.24914099276065826
      ],
      "type": "VEC3"
    },
    {
      "bufferView": 2,
      "byteOffset": 31740,
      "componentType": 5126,
      "count": 2645,
      "max": [
        0.99847114086151123,
        0.95362865924835205,
        0.99986135959625244
      ],
      "min": [
        -0.99847102165222168,
        -0.99585634469985962,
        -0.99998247623443604
      ],
      "type": "VEC3"
    },
    {
      "bufferView": 3,
      "componentType": 5126,
      "count": 2645,
      "max": [
        0.99997144937515259,
        0.99984276294708252,
        0.99995851516723633,
        1
      ],
      "min": [
        -0.99989199638366699,
        -0.99998193979263306,
        -0.99820667505264282,
        -1
      ],
      "type": "VEC4"
    },
    {
      "bufferView": 1,
      "componentType": 5126,
      "count": 2645,
      "max": [
        0.97676301002502441,
        0.94386202096939087
      ],
      "min": [
        0.0019496099557727575,
        0.0019920200575143099
      ],
      "type": "VEC2"
    },
    {
      "bufferView": 0,
      "componentType": 5125,
      "count": 14424,
      "max": [
        2644
      ],
      "min": [
        0
      ],
      "type": "SCALAR"
    }
  ],
  "asset": {
    "extras": {
      "author": "Juan Martinez Sanjurjo (https://sketchfab.com/JuanSanjurjo)",
      "license": "CC-BY-4.0 (http://creativecommons.org/licenses/by/4.0/)",
      "source": "https://sketchfab.com/3d-models/advanced-game-characters-week-2-jacket-8f211f057bb24f5db17ca659553b716b",
      "title": "Advanced Game Characters - Week 2 Jacket"
    },
    "generator": "Sketchfab-8.7.0",
    "version": "2.0"
  },
  "bufferViews": [
    {
      "buffer": 0,
      "byteLength": 57696,
      "byteOffset": 0,
      "name": "floatBufferViews",
      "target": 34963
    },
    {
      "buffer": 0,
      "byteLength": 21160,
      "byteOffset": 57696,
      "byteStride": 8,
      "name": "floatBufferViews",
      "target": 34962
    },
    {
      "buffer": 0,
      "byteLength": 63480,
      "byteOffset": 78856,
      "byteStride": 12,
      "name": "floatBufferViews",
      "target": 34962
    },
    {
      "buffer": 0,
      "byteLength": 42320,
      "byteOffset": 142336,
      "byteStride": 16,
      "name": "floatBufferViews",
      "target": 34962
    }
  ],
  "buffers": [
    {
      "byteLength": 184656,
      "uri": "scene.bin"
    }
  ],
  "images": [
    {
      "uri": "textures/Jacket_Lv2_Jacket_baseColor.jpeg"
    },
    {
      "uri": "textures/Jacket_Lv2_Jacket_metallicRoughness.png"
    },
    {
      "uri": "textures/Jacket_Lv2_Jacket_normal.png"
    }
  ],
  "materials": [
    {
      "doubleSided": true,
      "name": "Jacket_Lv2_Jacket",
      "normalTexture": {
        "index": 2,
        "scale": 1,
        "texCoord": 0
      },
      "occlusionTexture": {
        "index": 1,
        "strength": 1,
        "texCoord": 0
      },
      "pbrMetallicRoughness": {
        "baseColorFactor": [
          1,
          1,
          1,
          1
        ],
        "baseColorTexture": {
          "index": 0,
          "texCoord": 0
        },
        "metallicFactor": 1,
        "metallicRoughnessTexture": {
          "index": 1,
          "texCoord": 0
        },
        "roughnessFactor": 1
      }
    }
  ],
  "meshes": [
    {
      "name": "defaultMaterial",
      "primitives": [
        {
          "attributes": {
            "NORMAL": 1,
            "POSITION": 0,
            "TANGENT": 2,
            "TEXCOORD_0": 3
          },
          "indices": 4,
          "material": 0,
          "mode": 4
        }
      ]
    }
  ],
  "nodes": [
    {
      "children": [
        1
      ],
      "name": "RootNode (gltf orientation matrix)",
      "rotation": [
        -0.70710678118654746,
        -0,
        -0,
        0.70710678118654757
      ]
    },
    {
      "children": [
        2
      ],
      "name": "RootNode (model correction matrix)"
    },
    {
      "children": [
        3
      ],
      "matrix": [
        1,
        0,
        0,
        0,
        0,
        -4.3711390063094768e-08,
        0.999999999999999,
        0,
        0,
        -0.999999999999999,
        -4.3711390063094768e-08,
        0,
        0,
        0,
        0,
        1
      ],
      "name": "Collada visual scene group"
    },
    {
      "children": [
        4
      ],
      "name": "Jacket_Lv2:jacket_low"
    },
    {
      "mesh": 0,
      "name": "defaultMaterial"
    }
  ],
  "samplers": [
    {
      "magFilter": 9729,
      "minFilter": 9987,
      "wrapS": 10497,
      "wrapT": 10497
    }
  ],
  "scene": 0,
  "scenes": [
    {
      "name": "OSG_Scene",
      "nodes": [
        0
      ]
    }
  ],
  "textures": [
    {
      "sampler": 0,
      "source": 0
    },
    {
      "sampler": 0,
      "source": 1
    },
    {
      "sampler": 0,
      "source": 2
    }
  ]
}

