<?xml version="1.0" encoding="utf-8"?>
<!-- Generator: Adobe Illustrator 16.0.4, SVG Export Plug-In . SVG Version: 6.00 Build 0)  -->
<!DOCTYPE svg PUBLIC "-//W3C//DTD SVG 1.1//EN" "http://www.w3.org/Graphics/SVG/1.1/DTD/svg11.dtd">
<svg version="1.1" id="Layer_1" xmlns="http://www.w3.org/2000/svg" xmlns:xlink="http://www.w3.org/1999/xlink" x="0px" y="0px"
	 width="24px" height="24px" viewBox="0 0 24 24" enable-background="new 0 0 24 24" xml:space="preserve">
<path d="M20,7h-4V4c0-2.209-1.791-4-4-4S8,1.791,8,4v3H4L2,24h20L20,7z M9,4c0-1.654,1.346-3,3-3c1.654,0,3,1.346,3,3v3H9V4z
	 M4.249,22L5.778,9H8v1.5C8,10.776,8.224,11,8.5,11S9,10.776,9,10.5V9h6v1.5c0,0.276,0.225,0.5,0.5,0.5s0.5-0.224,0.5-0.5V9h2.223
	l1.528,13H4.249z"/>
</svg>
