<svg width="380" height="119" viewBox="0 0 210 66" fill="none" xmlns="http://www.w3.org/2000/svg">
    <rect width="380" height="119" fill="white"/>
    <path d="M79.9513 27.9307C78.4136 27.9307 77.1979 28.4425 76.3051 29.4666C75.4186 30.484 74.9744 31.8799 74.9744 33.6543C74.9744 35.4791 75.4025 36.891 76.2572 37.8893C77.1182 38.8812 78.3429 39.377 79.9321 39.377C80.908 39.377 82.0209 39.2022 83.2714 38.8523V40.2736C82.3017 40.6356 81.1053 40.817 79.6834 40.817C77.6228 40.817 76.0309 40.1942 74.9083 38.9477C73.7918 37.7016 73.2336 35.9303 73.2336 33.6351C73.2336 32.1978 73.502 30.9387 74.0374 29.8576C74.5795 28.7765 75.3582 27.9437 76.3726 27.3587C77.3929 26.7738 78.5925 26.4813 79.9705 26.4813C81.4376 26.4813 82.7199 26.7484 83.8176 27.2825L83.1283 28.6753C82.0687 28.1791 81.01 27.9307 79.9513 27.9307Z" fill="#151B23"/>
    <path d="M94.4015 35.5374C94.4015 37.195 93.9856 38.4914 93.153 39.4252C92.3203 40.3533 91.1704 40.817 89.7031 40.817C88.7965 40.817 87.992 40.604 87.289 40.1768C86.5861 39.7496 86.0435 39.1376 85.6609 38.3396C85.2783 37.5416 85.0876 36.6073 85.0876 35.5374C85.0876 33.8797 85.5005 32.5899 86.3271 31.6678C87.1528 30.7401 88.3002 30.276 89.7679 30.276C91.1855 30.276 92.3113 30.7492 93.1439 31.6955C93.9822 32.6423 94.4015 33.9231 94.4015 35.5374ZM86.6786 35.5374C86.6786 36.8363 86.9375 37.8261 87.4555 38.5066C87.9738 39.1871 88.7351 39.5275 89.7403 39.5275C90.745 39.5275 91.5063 39.1905 92.0242 38.5161C92.5486 37.8361 92.8102 36.8429 92.8102 35.5378C92.8102 34.2449 92.5486 33.2643 92.0242 32.5964C91.5063 31.9219 90.7385 31.5849 89.7217 31.5849C88.717 31.5849 87.9578 31.9159 87.4459 32.5777C86.9345 33.2391 86.6786 34.2258 86.6786 35.5374Z" fill="#151B23"/>
    <path d="M109.808 40.817V34.0828C109.808 33.2577 109.635 32.6405 109.291 32.2317C108.948 31.8163 108.414 31.6084 107.689 31.6084C106.738 31.6084 106.035 31.8887 105.58 32.4489C105.126 33.0091 104.899 33.8722 104.899 35.0368V40.817H103.37V34.0828C103.37 33.2577 103.198 32.6405 102.854 32.2317C102.511 31.8163 101.973 31.6084 101.242 31.6084C100.285 31.6084 99.5817 31.9041 99.1336 32.4962C98.692 33.0815 98.4707 34.0448 98.4707 35.386V40.817H96.9417V30.4654H98.1853L98.4341 31.8821H98.5073C98.7957 31.3784 99.2016 30.9846 99.7229 30.7016C100.251 30.4182 100.84 30.2764 101.491 30.2764C103.069 30.2764 104.1 30.8623 104.586 32.0331H104.659C104.96 31.4914 105.396 31.0631 105.967 30.7484C106.538 30.4336 107.189 30.276 107.919 30.276C109.061 30.276 109.915 30.5784 110.48 31.1828C111.051 31.781 111.336 32.7412 111.336 34.0634V40.8165H109.808V40.817Z" fill="#151B23"/>
    <path d="M127.165 40.817V34.0828C127.165 33.2577 126.993 32.6405 126.649 32.2317C126.305 31.8163 125.771 31.6084 125.046 31.6084C124.095 31.6084 123.392 31.8887 122.938 32.4489C122.483 33.0091 122.256 33.8722 122.256 35.0368V40.817H120.727V34.0828C120.727 33.2577 120.556 32.6405 120.212 32.2317C119.868 31.8163 119.331 31.6084 118.6 31.6084C117.642 31.6084 116.939 31.9041 116.492 32.4962C116.05 33.0815 115.829 34.0448 115.829 35.386V40.817H114.299V30.4654H115.543L115.792 31.8821H115.866C116.154 31.3784 116.559 30.9846 117.081 30.7016C117.609 30.4182 118.199 30.2764 118.849 30.2764C120.426 30.2764 121.459 30.8623 121.943 32.0331H122.017C122.318 31.4914 122.754 31.0631 123.324 30.7484C123.896 30.4336 124.547 30.276 125.277 30.276C126.419 30.276 127.272 30.5784 127.837 31.1828C128.408 31.781 128.693 32.7412 128.693 34.0634V40.8165H127.165V40.817Z" fill="#151B23"/>
    <path d="M136.02 40.817C134.54 40.817 133.371 40.3594 132.512 39.4438C131.66 38.5282 131.234 37.2569 131.234 35.63C131.234 33.9905 131.629 32.6884 132.421 31.7234C133.218 30.7583 134.287 30.276 135.627 30.276C136.881 30.276 137.874 30.6967 138.604 31.5382C139.336 32.3731 139.701 33.4774 139.701 34.851V35.8252H132.805C132.835 37.0192 133.131 37.9253 133.691 38.5442C134.257 39.1632 135.052 39.4724 136.075 39.4724C137.152 39.4724 138.218 39.2434 139.271 38.7858V40.159C138.735 40.3941 138.227 40.5611 137.746 40.66C137.271 40.7645 136.696 40.817 136.02 40.817ZM135.609 31.5655C134.805 31.5655 134.163 31.8314 133.681 32.3635C133.206 32.8953 132.926 33.6313 132.841 34.5717H138.075C138.075 33.6006 137.862 32.858 137.435 32.3449C137.009 31.8253 136.401 31.5655 135.609 31.5655Z" fill="#151B23"/>
    <path d="M146.938 30.276C147.395 30.276 147.805 30.3135 148.168 30.3895L147.952 31.8437C147.527 31.7492 147.151 31.702 146.825 31.702C145.993 31.702 145.279 32.0424 144.684 32.7223C144.095 33.4026 143.8 34.2494 143.8 35.263V40.817H142.241V30.465H143.528L143.706 32.3823H143.781C144.163 31.7086 144.624 31.189 145.162 30.8239C145.701 30.4588 146.292 30.276 146.938 30.276Z" fill="#151B23"/>
    <path d="M153.973 40.817C152.531 40.817 151.413 40.3655 150.619 39.4625C149.832 38.553 149.438 37.2692 149.438 35.6115C149.438 33.9105 149.837 32.5959 150.637 31.6678C151.443 30.7401 152.589 30.276 154.073 30.276C154.551 30.276 155.03 30.3285 155.509 30.4339C155.987 30.5388 156.363 30.6629 156.635 30.8047L156.172 32.1132C155.839 31.9775 155.475 31.866 155.082 31.7792C154.687 31.6864 154.34 31.64 154.036 31.64C152.013 31.64 151 32.9576 151 35.5929C151 36.8424 151.246 37.8014 151.736 38.4697C152.233 39.1376 152.967 39.472 153.936 39.472C154.766 39.472 155.617 39.2894 156.49 38.9242V40.2887C155.824 40.6409 154.984 40.817 153.973 40.817Z" fill="#151B23"/>
    <path d="M163.115 40.817C161.635 40.817 160.466 40.3594 159.608 39.4438C158.755 38.5282 158.329 37.2569 158.329 35.63C158.329 33.9905 158.725 32.6884 159.516 31.7234C160.314 30.7583 161.382 30.276 162.722 30.276C163.977 30.276 164.969 30.6967 165.699 31.5382C166.43 32.3731 166.796 33.4774 166.796 34.851V35.8252H159.9C159.93 37.0192 160.226 37.9253 160.786 38.5442C161.352 39.1632 162.147 39.4724 163.17 39.4724C164.247 39.4724 165.313 39.2434 166.366 38.7858V40.159C165.83 40.3941 165.322 40.5611 164.841 40.66C164.366 40.7645 163.791 40.817 163.115 40.817ZM162.704 31.5655C161.9 31.5655 161.257 31.8314 160.776 32.3635C160.302 32.8953 160.021 33.6313 159.936 34.5717H165.17C165.17 33.6006 164.956 32.858 164.53 32.3449C164.104 31.8253 163.495 31.5655 162.704 31.5655Z" fill="#151B23"/>
    <path d="M168.598 39.5133C168.598 39.1107 168.689 38.8067 168.87 38.6022C169.057 38.3918 169.323 38.2864 169.667 38.2864C170.017 38.2864 170.289 38.3918 170.482 38.6022C170.682 38.8067 170.781 39.1107 170.781 39.5133C170.781 39.9042 170.682 40.2053 170.482 40.4156C170.283 40.626 170.012 40.7315 169.667 40.7315C169.359 40.7315 169.103 40.6379 168.897 40.4515C168.698 40.2588 168.598 39.9464 168.598 39.5133Z" fill="#151B23"/>
    <path d="M172.556 44.4862C171.983 44.4862 171.517 44.4107 171.161 44.2606V43.0429C171.578 43.1631 171.988 43.2234 172.392 43.2234C172.864 43.2234 173.208 43.0939 173.425 42.8355C173.649 42.5825 173.76 42.1946 173.76 41.6717V30.161H175.264V41.5634C175.264 43.5118 174.361 44.4862 172.556 44.4862ZM173.634 27.4819C173.634 27.1391 173.718 26.8895 173.888 26.7331C174.057 26.5708 174.267 26.4894 174.521 26.4894C174.763 26.4894 174.971 26.5703 175.147 26.7331C175.322 26.8954 175.409 27.145 175.409 27.4819C175.409 27.8188 175.322 28.0714 175.147 28.2396C174.972 28.4019 174.763 28.4833 174.521 28.4833C174.267 28.4833 174.057 28.4024 173.888 28.2396C173.718 28.0714 173.634 27.8188 173.634 27.4819Z" fill="#151B23"/>
    <path d="M185 37.8573C185 38.8037 184.648 39.5336 183.944 40.0471C183.24 40.5606 182.252 40.817 180.98 40.817C179.634 40.817 178.584 40.604 177.831 40.1768V38.7477C178.319 38.9949 178.84 39.1901 179.396 39.3324C179.958 39.4746 180.499 39.5458 181.017 39.5458C181.82 39.5458 182.437 39.4191 182.869 39.1654C183.302 38.9052 183.518 38.5127 183.518 37.9866C183.518 37.591 183.345 37.254 182.999 36.9756C182.659 36.6911 181.993 36.3567 180.999 35.9728C180.054 35.6206 179.381 35.314 178.979 35.0547C178.584 34.7888 178.287 34.4882 178.09 34.1543C177.899 33.8203 177.803 33.4217 177.803 32.9577C177.803 32.1288 178.139 31.4761 178.813 30.9999C179.486 30.5171 180.409 30.276 181.582 30.276C182.675 30.276 183.743 30.4989 184.787 30.9444L184.24 32.1969C183.221 31.7762 182.298 31.5659 181.471 31.5659C180.742 31.5659 180.192 31.6804 179.821 31.9094C179.451 32.1379 179.266 32.4537 179.266 32.8557C179.266 33.1277 179.334 33.3601 179.47 33.5518C179.612 33.7431 179.837 33.9257 180.146 34.0992C180.455 34.2722 181.048 34.5234 181.925 34.8508C183.129 35.2902 183.941 35.7321 184.361 36.1775C184.787 36.623 185 37.1829 185 37.8573Z" fill="#151B23"/>
    <path d="M47.3057 21.3188C47.7325 20.8937 48.4245 20.8937 48.8516 21.3188L63.5997 36.0096C64.0265 36.4346 64.0265 37.1241 63.5997 37.5494L62.2513 38.8924L45.9575 22.6623L47.3057 21.3188Z" fill="#151B23"/>
    <path d="M50.407 30.3953L41.4266 21.4541C40.9998 21.029 40.307 21.029 39.8807 21.4546L25.32 35.9651C24.8932 36.3904 24.8932 37.0799 25.3205 37.5049L33.5287 45.6769C33.9556 46.1017 34.6465 46.1022 35.0741 45.6773L44.443 36.3645L53.8396 45.6828C54.2656 46.1054 54.9539 46.1059 55.3809 45.6838L60.5126 40.6108L50.407 30.3953ZM37.2283 36.5821C35.5377 36.5821 34.222 35.2111 34.222 33.588C34.222 31.9641 35.5377 30.5937 37.2283 30.5937C38.9189 30.5937 40.2345 31.9643 40.2345 33.588C40.234 35.2116 38.9184 36.5821 37.2283 36.5821Z" fill="#151B23"/>
    <path d="M38.306 33.8468C38.303 33.7064 38.2459 33.5805 38.1345 33.4695C38.0513 33.3864 37.9614 33.3379 37.8656 33.3238C37.768 33.3085 37.6749 33.3139 37.586 33.3406C37.4983 33.3661 37.3876 33.4074 37.2535 33.465C37.1306 33.5197 37.0368 33.5585 36.972 33.581C36.9069 33.6005 36.8498 33.6082 36.8004 33.6042C36.7525 33.5986 36.7073 33.5746 36.6648 33.5325C36.6055 33.4734 36.5802 33.4074 36.5886 33.3342C36.597 33.261 36.6142 33.1824 36.7552 33.0417L37.0358 32.7622L36.8496 32.5768L36.6437 32.7818C36.6338 32.786 36.6261 32.7852 36.6204 32.7798L36.4657 32.6173C36.4588 32.6104 36.4503 32.6074 36.4401 32.6089C36.4302 32.6074 36.4218 32.6104 36.4148 32.6173L36.2494 32.7818C36.2425 32.789 36.239 32.7979 36.239 32.8092C36.239 32.8176 36.2425 32.8253 36.2494 32.8325L36.4103 32.9843C36.4158 32.99 36.4165 32.9977 36.4123 33.0075C36.3162 33.1369 36.2698 33.2692 36.2725 33.4042C36.2768 33.5377 36.3326 33.6579 36.4399 33.7647C36.5231 33.8478 36.6129 33.8978 36.7088 33.9143C36.8034 33.9299 36.8965 33.9242 36.9881 33.8978C37.08 33.8711 37.1915 33.8288 37.3228 33.7712C37.4427 33.7219 37.5353 33.6873 37.6001 33.6678C37.6652 33.6453 37.723 33.6369 37.7739 33.6423C37.8233 33.6465 37.8678 33.6683 37.9073 33.7079C37.9651 33.7652 37.9912 33.8337 37.9855 33.9124C37.9813 33.9895 37.9482 34.0817 37.8648 34.1646L37.4556 34.5575L37.6324 34.7472L37.9135 34.4947C37.9234 34.4905 37.9311 34.4912 37.9368 34.4969L38.0766 34.6403C38.0836 34.6473 38.0915 34.6507 38.0999 34.6507C38.1111 34.6507 38.1206 34.6473 38.1275 34.6403L38.2929 34.4759C38.2998 34.4687 38.3028 34.4606 38.3013 34.4504C38.3025 34.4405 38.2998 34.4321 38.2929 34.425L38.1511 34.2877C38.1454 34.2823 38.1446 34.2744 38.1489 34.2645C38.2566 34.1265 38.309 33.9873 38.306 33.8468Z" fill="#151B23"/>
</svg>
