<svg width="523" height="60" viewBox="0 0 523 60" fill="none" xmlns="http://www.w3.org/2000/svg">
<path d="M124.866 16.4375C121.413 16.4375 118.683 17.6514 116.677 20.0802C114.686 22.4931 113.689 25.8038 113.689 30.0122C113.689 34.34 114.65 37.6887 116.57 40.0562C118.504 42.4089 121.254 43.5847 124.823 43.5847C127.015 43.5847 129.515 43.1702 132.323 42.3401V45.7111C130.145 46.5697 127.458 47 124.265 47C119.637 47 116.062 45.5229 113.54 42.5664C111.033 39.611 109.779 35.4101 109.779 29.9667C109.779 26.5577 110.382 23.5717 111.584 21.0075C112.802 18.4434 114.551 16.4682 116.829 15.0809C119.12 13.6936 121.815 13 124.91 13C128.205 13 131.085 13.6334 133.55 14.9001L132.002 18.2034C129.622 17.0265 127.244 16.4375 124.866 16.4375Z" fill="black"/>
<path d="M157.32 34.4784C157.32 38.4099 156.386 41.4844 154.516 43.6991C152.646 45.9004 150.063 47 146.768 47C144.732 47 142.925 46.4949 141.346 45.4817C139.768 44.4685 138.549 43.0171 137.69 41.1244C136.83 39.2317 136.402 37.016 136.402 34.4784C136.402 30.5469 137.329 27.4878 139.186 25.3009C141.04 23.1006 143.617 22 146.914 22C150.097 22 152.626 23.1222 154.496 25.3667C156.378 27.6122 157.32 30.6498 157.32 34.4784ZM139.975 34.4784C139.975 37.5592 140.557 39.9065 141.72 41.5205C142.884 43.1344 144.594 43.9419 146.852 43.9419C149.108 43.9419 150.818 43.1426 151.981 41.5431C153.159 39.9302 153.746 37.5746 153.746 34.4794C153.746 31.4131 153.159 29.0873 151.981 27.5032C150.818 25.9037 149.093 25.1044 146.81 25.1044C144.553 25.1044 142.848 25.8893 141.699 27.459C140.55 29.0277 139.975 31.3678 139.975 34.4784Z" fill="black"/>
<path d="M191.921 47V31.0286C191.921 29.0717 191.534 27.6079 190.762 26.6384C189.989 25.6531 188.79 25.1599 187.163 25.1599C185.027 25.1599 183.447 25.8248 182.427 27.1535C181.407 28.4822 180.896 30.5291 180.896 33.2912V47H177.462V31.0286C177.462 29.0717 177.077 27.6079 176.304 26.6384C175.533 25.6531 174.324 25.1599 172.684 25.1599C170.533 25.1599 168.955 25.8615 167.948 27.2655C166.956 28.6539 166.459 30.9385 166.459 34.1194V47H163.025V22.4492H165.818L166.377 25.8091H166.541C167.189 24.6144 168.101 23.6805 169.272 23.0093C170.458 22.3371 171.781 22.0011 173.242 22.0011C176.787 22.0011 179.103 23.3905 180.193 26.1672H180.358C181.033 24.8825 182.013 23.8669 183.295 23.1203C184.577 22.3738 186.04 22 187.68 22C190.244 22 192.163 22.7172 193.43 24.1506C194.713 25.5693 195.353 27.8466 195.353 30.9825V46.999H191.921V47Z" fill="black"/>
<path d="M230.904 47V31.0286C230.904 29.0717 230.517 27.6079 229.746 26.6384C228.973 25.6531 227.773 25.1599 226.145 25.1599C224.009 25.1599 222.429 25.8248 221.41 27.1535C220.389 28.4822 219.879 30.5291 219.879 33.2912V47H216.445V31.0286C216.445 29.0717 216.06 27.6079 215.288 26.6384C214.516 25.6531 213.309 25.1599 211.668 25.1599C209.517 25.1599 207.938 25.8615 206.932 27.2655C205.94 28.6539 205.444 30.9385 205.444 34.1194V47H202.009V22.4492H204.802L205.36 25.8091H205.527C206.174 24.6144 207.084 23.6805 208.256 23.0093C209.443 22.3371 210.767 22.0011 212.227 22.0011C215.769 22.0011 218.088 23.3905 219.176 26.1672H219.342C220.018 24.8825 220.997 23.8669 222.278 23.1203C223.561 22.3738 225.023 22 226.665 22C229.228 22 231.144 22.7172 232.413 24.1506C233.695 25.5693 234.337 27.8466 234.337 30.9825V46.999H230.904V47Z" fill="black"/>
<path d="M250.791 47C247.468 47 244.842 45.9147 242.913 43.7432C240.998 41.5717 240.042 38.5566 240.042 34.698C240.042 30.8096 240.93 27.7215 242.708 25.4327C244.499 23.1439 246.9 22 249.909 22C252.726 22 254.955 22.9978 256.596 24.9935C258.238 26.9737 259.058 29.5927 259.058 32.8505V35.1609H243.57C243.638 37.9929 244.303 40.1418 245.561 41.6097C246.831 43.0776 248.617 43.8111 250.914 43.8111C253.335 43.8111 255.728 43.268 258.093 42.1827V45.4395C256.889 45.997 255.748 46.3931 254.667 46.6276C253.601 46.8755 252.309 47 250.791 47ZM249.868 25.0583C248.062 25.0583 246.62 25.6888 245.539 26.951C244.472 28.2122 243.842 29.9579 243.652 32.188H255.407C255.407 29.8848 254.927 28.1237 253.969 26.9068C253.014 25.6744 251.646 25.0583 249.868 25.0583Z" fill="black"/>
<path d="M275.311 22C276.338 22 277.259 22.089 278.074 22.2691L277.59 25.7182C276.634 25.4941 275.79 25.3821 275.058 25.3821C273.189 25.3821 271.585 26.1893 270.249 27.8018C268.927 29.4154 268.265 31.4237 268.265 33.8278V47H264.763V22.4481H267.653L268.053 26.9956H268.222C269.08 25.3978 270.114 24.1654 271.324 23.2994C272.534 22.4335 273.862 22 275.311 22Z" fill="black"/>
<path d="M291.112 47C287.873 47 285.362 45.9292 283.58 43.7876C281.811 41.6305 280.927 38.5857 280.927 34.6543C280.927 30.62 281.824 27.5022 283.62 25.3009C285.43 23.1006 288.003 22 291.336 22C292.41 22 293.486 22.1245 294.561 22.3744C295.635 22.6234 296.479 22.9175 297.091 23.2539L296.05 26.3573C295.302 26.0353 294.485 25.771 293.602 25.5653C292.717 25.3451 291.935 25.2351 291.253 25.2351C286.709 25.2351 284.436 28.3601 284.436 34.6101C284.436 37.5736 284.987 39.8479 286.089 41.433C287.205 43.0171 288.852 43.8102 291.029 43.8102C292.893 43.8102 294.805 43.3771 296.764 42.511V45.7471C295.27 46.5824 293.383 47 291.112 47Z" fill="black"/>
<path d="M311.644 47C308.32 47 305.694 45.9147 303.767 43.7432C301.852 41.5717 300.894 38.5566 300.894 34.698C300.894 30.8096 301.784 27.7215 303.56 25.4327C305.352 23.1439 307.752 22 310.762 22C313.579 22 315.807 22.9978 317.448 24.9935C319.089 26.9737 319.91 29.5927 319.91 32.8505V35.1609H304.423C304.491 37.9929 305.155 40.1418 306.413 41.6097C307.684 43.0776 309.469 43.8111 311.767 43.8111C314.186 43.8111 316.581 43.268 318.946 42.1827V45.4395C317.742 45.997 316.601 46.3931 315.52 46.6276C314.453 46.8755 313.162 47 311.644 47ZM310.721 25.0583C308.915 25.0583 307.471 25.6888 306.392 26.951C305.325 28.2122 304.696 29.9579 304.505 32.188H316.258C316.258 29.8848 315.779 28.1237 314.822 26.9068C313.865 25.6744 312.498 25.0583 310.721 25.0583Z" fill="black"/>
<path d="M323.959 43.908C323.959 42.953 324.162 42.232 324.569 41.747C324.989 41.248 325.586 40.998 326.359 40.998C327.146 40.998 327.757 41.248 328.19 41.747C328.638 42.232 328.861 42.953 328.861 43.908C328.861 44.835 328.638 45.549 328.19 46.048C327.743 46.547 327.133 46.797 326.359 46.797C325.667 46.797 325.091 46.575 324.63 46.133C324.182 45.676 323.959 44.935 323.959 43.908Z" fill="black"/>
<path d="M332.847 55.702C331.56 55.702 330.515 55.523 329.714 55.167V52.279C330.651 52.564 331.572 52.707 332.48 52.707C333.539 52.707 334.312 52.4 334.799 51.787C335.301 51.187 335.552 50.267 335.552 49.027V21.727H338.93V48.77C338.931 53.391 336.903 55.702 332.847 55.702ZM335.268 15.373C335.268 14.56 335.457 13.968 335.839 13.597C336.218 13.212 336.691 13.019 337.262 13.019C337.804 13.019 338.272 13.211 338.666 13.597C339.059 13.982 339.256 14.574 339.256 15.373C339.256 16.172 339.059 16.771 338.666 17.17C338.273 17.555 337.805 17.748 337.262 17.748C336.691 17.748 336.218 17.556 335.839 17.17C335.458 16.771 335.268 16.172 335.268 15.373Z" fill="black"/>
<path d="M360.796 39.9806C360.796 42.2251 360.005 43.9563 358.425 45.1742C356.843 46.3921 354.625 47 351.767 47C348.744 47 346.387 46.4949 344.694 45.4817V42.0924C345.79 42.6787 346.962 43.1416 348.21 43.479C349.472 43.8164 350.686 43.9851 351.851 43.9851C353.653 43.9851 355.04 43.6847 356.011 43.0829C356.982 42.4658 357.466 41.5349 357.466 40.2871C357.466 39.349 357.079 38.5497 356.302 37.8894C355.539 37.2146 354.041 36.4215 351.809 35.5111C349.687 34.6759 348.175 33.9487 347.274 33.3335C346.387 32.703 345.72 31.9901 345.276 31.1981C344.847 30.406 344.632 29.4607 344.632 28.3601C344.632 26.3943 345.386 24.8462 346.899 23.7168C348.411 22.5719 350.485 22 353.119 22C355.573 22 357.973 22.5287 360.316 23.5851L359.089 26.5558C356.8 25.5581 354.728 25.0592 352.869 25.0592C351.232 25.0592 349.998 25.3307 349.165 25.8738C348.334 26.4159 347.918 27.1648 347.918 28.1183C347.918 28.7633 348.07 29.3146 348.375 29.7693C348.694 30.2229 349.201 30.656 349.894 31.0674C350.589 31.4779 351.92 32.0734 353.889 32.8501C356.593 33.8921 358.416 34.9403 359.36 35.9967C360.317 37.0531 360.796 38.381 360.796 39.9806Z" fill="black"/>
<path d="M51.5476 0.756117C52.5062 -0.252039 54.0603 -0.252039 55.0194 0.756117L88.1424 35.5982C89.1009 36.6063 89.1009 38.2414 88.1424 39.2502L85.1138 42.4353L48.5196 3.94245L51.5476 0.756117Z" fill="black"/>
<path d="M58.5125 22.2828L38.3434 1.07695C37.3848 0.0687988 35.829 0.0687982 34.8715 1.07813L2.16961 35.4926C1.21104 36.5014 1.21104 38.1365 2.17073 39.1446L20.6056 58.526C21.5641 59.5335 23.116 59.5347 24.0763 58.5271L45.1181 36.4398L66.2217 58.54C67.1786 59.5423 68.7244 59.5435 69.6835 58.5424L81.2087 46.5108L58.5125 22.2828ZM28.9143 36.9559C25.1174 36.9559 22.1625 33.7045 22.1625 29.8548C22.1625 26.0034 25.1174 22.7532 28.9143 22.7532C32.7113 22.7532 35.6662 26.004 35.6662 29.8548C35.6651 33.7056 32.7101 36.9559 28.9143 36.9559Z" fill="black"/>
<path d="M31.335 30.4688C31.3283 30.1357 31.2001 29.8372 30.9497 29.5739C30.7629 29.3768 30.561 29.2618 30.3458 29.2284C30.1266 29.1921 29.9175 29.205 29.7179 29.2683C29.521 29.3287 29.2723 29.4266 28.9712 29.5633C28.6952 29.6929 28.4844 29.785 28.3389 29.8384C28.1928 29.8847 28.0645 29.9029 27.9535 29.8935C27.8459 29.88 27.7444 29.8231 27.6491 29.7234C27.5158 29.5832 27.4589 29.4266 27.4779 29.253C27.4968 29.0795 27.5353 28.893 27.852 28.5592L28.4822 27.8965L28.0639 27.4567L27.6017 27.9429C27.5794 27.9528 27.5621 27.9511 27.5492 27.9382L27.2018 27.5528C27.1862 27.5364 27.1673 27.5294 27.1444 27.5329C27.1221 27.5294 27.1031 27.5364 27.0875 27.5528L26.7161 27.9429C26.7005 27.9599 26.6927 27.981 26.6927 28.008C26.6927 28.0279 26.7005 28.0461 26.7161 28.0631L27.0775 28.4232C27.0898 28.4367 27.0914 28.4549 27.0819 28.4783C26.8661 28.785 26.7619 29.0988 26.768 29.419C26.7775 29.7357 26.9029 30.0207 27.1438 30.2741C27.3307 30.4712 27.5325 30.5896 27.7478 30.6289C27.9602 30.6659 28.1693 30.6524 28.3751 30.5896C28.5814 30.5263 28.8318 30.426 29.1268 30.2894C29.3961 30.1726 29.6041 30.0905 29.7497 30.0442C29.8958 29.9908 30.0257 29.9709 30.14 29.9838C30.251 29.9938 30.3508 30.0454 30.4395 30.1392C30.5694 30.2753 30.628 30.4377 30.6151 30.6242C30.6056 30.8072 30.5315 31.026 30.3441 31.2224L29.4251 32.1544L29.8222 32.6042L30.4534 32.0054C30.4757 31.9954 30.493 31.9972 30.5058 32.0107L30.8198 32.3508C30.8354 32.3672 30.8532 32.3755 30.8722 32.3755C30.8973 32.3755 30.9185 32.3672 30.9341 32.3508L31.3055 31.9608C31.3211 31.9438 31.3278 31.9245 31.3244 31.9004C31.3272 31.877 31.3211 31.857 31.3055 31.84L30.9871 31.5145C30.9742 31.5016 30.9726 31.4828 30.982 31.4594C31.2241 31.1321 31.3417 30.8019 31.335 30.4688Z" fill="black"/>
</svg>
