<svg width="380" height="60" viewBox="0 0 380 60" fill="none" xmlns="http://www.w3.org/2000/svg">
<path d="M130.799 16.4375C127.167 16.4375 124.295 17.6514 122.187 20.0802C120.093 22.4931 119.044 25.8038 119.044 30.0122C119.044 34.34 120.055 37.6887 122.074 40.0562C124.107 42.4089 127 43.5847 130.754 43.5847C133.059 43.5847 135.688 43.1702 138.642 42.3401V45.7111C136.351 46.5697 133.525 47 130.166 47C125.299 47 121.539 45.5229 118.887 42.5664C116.25 39.611 114.932 35.4101 114.932 29.9667C114.932 26.5577 115.566 23.5717 116.83 21.0075C118.111 18.4434 119.95 16.4682 122.346 15.0809C124.756 13.6936 127.59 13 130.845 13C134.31 13 137.339 13.6334 139.932 14.9001L138.304 18.2034C135.801 17.0265 133.3 16.4375 130.799 16.4375Z" fill="black"/>
<path d="M164.932 34.4784C164.932 38.4099 163.949 41.4844 161.983 43.6991C160.016 45.9004 157.299 47 153.834 47C151.692 47 149.792 46.4949 148.131 45.4817C146.471 44.4685 145.189 43.0171 144.286 41.1244C143.382 39.2317 142.932 37.016 142.932 34.4784C142.932 30.5469 143.907 27.4878 145.859 25.3009C147.81 23.1006 150.52 22 153.987 22C157.335 22 159.994 23.1222 161.961 25.3667C163.941 27.6122 164.932 30.6498 164.932 34.4784ZM146.69 34.4784C146.69 37.5592 147.301 39.9065 148.525 41.5205C149.749 43.1344 151.547 43.9419 153.921 43.9419C156.295 43.9419 158.093 43.1426 159.316 41.5431C160.555 39.9302 161.173 37.5746 161.173 34.4794C161.173 31.4131 160.555 29.0873 159.316 27.5032C158.093 25.9037 156.279 25.1044 153.878 25.1044C151.504 25.1044 149.711 25.8893 148.502 27.459C147.294 29.0277 146.69 31.3678 146.69 34.4784Z" fill="black"/>
<path d="M201.322 47V31.0286C201.322 29.0717 200.915 27.6079 200.103 26.6384C199.29 25.6531 198.03 25.1599 196.318 25.1599C194.071 25.1599 192.41 25.8248 191.337 27.1535C190.264 28.4822 189.727 30.5291 189.727 33.2912V47H186.116V31.0286C186.116 29.0717 185.71 27.6079 184.898 26.6384C184.086 25.6531 182.815 25.1599 181.091 25.1599C178.828 25.1599 177.168 25.8615 176.109 27.2655C175.066 28.6539 174.543 30.9385 174.543 34.1194V47H170.932V22.4492H173.869L174.457 25.8091H174.63C175.311 24.6144 176.27 23.6805 177.501 23.0093C178.749 22.3371 180.141 22.0011 181.677 22.0011C185.405 22.0011 187.841 23.3905 188.987 26.1672H189.161C189.871 24.8825 190.902 23.8669 192.25 23.1203C193.598 22.3738 195.137 22 196.861 22C199.559 22 201.576 22.7172 202.909 24.1506C204.259 25.5693 204.932 27.8466 204.932 30.9825V46.999H201.322V47Z" fill="black"/>
<path d="M242.321 47V31.0286C242.321 29.0717 241.914 27.6079 241.103 26.6384C240.291 25.6531 239.029 25.1599 237.317 25.1599C235.07 25.1599 233.408 25.8248 232.337 27.1535C231.263 28.4822 230.726 30.5291 230.726 33.2912V47H227.115V31.0286C227.115 29.0717 226.71 27.6079 225.898 26.6384C225.085 25.6531 223.816 25.1599 222.091 25.1599C219.828 25.1599 218.167 25.8615 217.11 27.2655C216.066 28.6539 215.544 30.9385 215.544 34.1194V47H211.932V22.4492H214.869L215.457 25.8091H215.632C216.313 24.6144 217.27 23.6805 218.502 23.0093C219.75 22.3371 221.142 22.0011 222.679 22.0011C226.404 22.0011 228.842 23.3905 229.987 26.1672H230.162C230.873 24.8825 231.902 23.8669 233.25 23.1203C234.599 22.3738 236.136 22 237.863 22C240.559 22 242.574 22.7172 243.908 24.1506C245.256 25.5693 245.932 27.8466 245.932 30.9825V46.999H242.321V47Z" fill="black"/>
<path d="M263.237 47C259.742 47 256.981 45.9147 254.952 43.7432C252.938 41.5717 251.932 38.5566 251.932 34.698C251.932 30.8096 252.866 27.7215 254.736 25.4327C256.62 23.1439 259.145 22 262.309 22C265.272 22 267.617 22.9978 269.342 24.9935C271.069 26.9737 271.932 29.5927 271.932 32.8505V35.1609H255.643C255.714 37.9929 256.413 40.1418 257.736 41.6097C259.072 43.0776 260.951 43.8111 263.366 43.8111C265.912 43.8111 268.429 43.268 270.917 42.1827V45.4395C269.651 45.997 268.451 46.3931 267.314 46.6276C266.193 46.8755 264.833 47 263.237 47ZM262.266 25.0583C260.367 25.0583 258.85 25.6888 257.713 26.951C256.592 28.2122 255.929 29.9579 255.728 32.188H268.092C268.092 29.8848 267.587 28.1237 266.58 26.9068C265.575 25.6744 264.137 25.0583 262.266 25.0583Z" fill="black"/>
<path d="M289.026 22C290.105 22 291.074 22.089 291.932 22.2691L291.422 25.7182C290.417 25.4941 289.529 25.3821 288.759 25.3821C286.793 25.3821 285.107 26.1893 283.702 27.8018C282.311 29.4154 281.615 31.4237 281.615 33.8278V47H277.932V22.4481H280.971L281.392 26.9956H281.57C282.472 25.3978 283.56 24.1654 284.832 23.2994C286.105 22.4335 287.501 22 289.026 22Z" fill="black"/>
<path d="M305.644 47C302.237 47 299.596 45.9292 297.722 43.7876C295.862 41.6305 294.932 38.5857 294.932 34.6543C294.932 30.62 295.875 27.5022 297.764 25.3009C299.668 23.1006 302.374 22 305.879 22C307.009 22 308.14 22.1245 309.271 22.3744C310.401 22.6234 311.288 22.9175 311.932 23.2539L310.837 26.3573C310.05 26.0353 309.191 25.771 308.262 25.5653C307.331 25.3451 306.509 25.2351 305.792 25.2351C301.013 25.2351 298.622 28.3601 298.622 34.6101C298.622 37.5736 299.202 39.8479 300.361 41.433C301.535 43.0171 303.267 43.8102 305.556 43.8102C307.517 43.8102 309.528 43.3771 311.588 42.511V45.7471C310.016 46.5824 308.033 47 305.644 47Z" fill="black"/>
<path d="M327.237 47C323.741 47 320.98 45.9147 318.953 43.7432C316.939 41.5717 315.932 38.5566 315.932 34.698C315.932 30.8096 316.867 27.7215 318.736 25.4327C320.621 23.1439 323.145 22 326.31 22C329.272 22 331.616 22.9978 333.342 24.9935C335.067 26.9737 335.932 29.5927 335.932 32.8505V35.1609H319.643C319.715 37.9929 320.413 40.1418 321.736 41.6097C323.073 43.0776 324.95 43.8111 327.367 43.8111C329.911 43.8111 332.43 43.268 334.917 42.1827V45.4395C333.651 45.997 332.451 46.3931 331.314 46.6276C330.192 46.8755 328.834 47 327.237 47ZM326.266 25.0583C324.368 25.0583 322.849 25.6888 321.714 26.951C320.592 28.2122 319.93 29.9579 319.729 32.188H332.091C332.091 29.8848 331.587 28.1237 330.58 26.9068C329.574 25.6744 328.136 25.0583 326.266 25.0583Z" fill="black"/>
<path d="M340.19 43.908C340.19 42.953 340.403 42.232 340.832 41.747C341.273 41.248 341.901 40.998 342.714 40.998C343.542 40.998 344.184 41.248 344.64 41.747C345.111 42.232 345.346 42.953 345.346 43.908C345.346 44.835 345.111 45.549 344.64 46.048C344.17 46.547 343.528 46.797 342.714 46.797C341.986 46.797 341.381 46.575 340.896 46.133C340.425 45.676 340.19 44.935 340.19 43.908Z" fill="black"/>
<path d="M349.538 55.702C348.184 55.702 347.085 55.523 346.243 55.167V52.279C347.228 52.564 348.197 52.707 349.152 52.707C350.265 52.707 351.078 52.4 351.591 51.787C352.119 51.187 352.383 50.267 352.383 49.027V21.727H355.935V48.77C355.936 53.391 353.803 55.702 349.538 55.702ZM352.084 15.373C352.084 14.56 352.283 13.968 352.684 13.597C353.083 13.212 353.581 13.019 354.181 13.019C354.751 13.019 355.243 13.211 355.658 13.597C356.071 13.982 356.278 14.574 356.278 15.373C356.278 16.172 356.071 16.771 355.658 17.17C355.244 17.555 354.752 17.748 354.181 17.748C353.581 17.748 353.083 17.556 352.684 17.17C352.284 16.771 352.084 16.172 352.084 15.373Z" fill="black"/>
<path d="M378.932 39.9806C378.932 42.2251 378.1 43.9563 376.438 45.1742C374.774 46.3921 372.442 47 369.436 47C366.257 47 363.778 46.4949 361.997 45.4817V42.0924C363.15 42.6787 364.382 43.1416 365.695 43.479C367.023 43.8164 368.299 43.9851 369.524 43.9851C371.42 43.9851 372.878 43.6847 373.899 43.0829C374.921 42.4658 375.43 41.5349 375.43 40.2871C375.43 39.349 375.023 38.5497 374.206 37.8894C373.403 37.2146 371.828 36.4215 369.48 35.5111C367.249 34.6759 365.658 33.9487 364.71 33.3335C363.778 32.703 363.076 31.9901 362.61 31.1981C362.158 30.406 361.932 29.4607 361.932 28.3601C361.932 26.3943 362.725 24.8462 364.317 23.7168C365.907 22.5719 368.087 22 370.858 22C373.439 22 375.963 22.5287 378.427 23.5851L377.137 26.5558C374.729 25.5581 372.55 25.0592 370.595 25.0592C368.874 25.0592 367.576 25.3307 366.699 25.8738C365.825 26.4159 365.388 27.1648 365.388 28.1183C365.388 28.7633 365.548 29.3146 365.869 29.7693C366.204 30.2229 366.737 30.656 367.466 31.0674C368.197 31.4779 369.597 32.0734 371.668 32.8501C374.512 33.8921 376.429 34.9403 377.422 35.9967C378.428 37.0531 378.932 38.381 378.932 39.9806Z" fill="black"/>
<path d="M53.688 0.756117C54.6961 -0.252039 56.3307 -0.252039 57.3394 0.756117L92.1756 35.5982C93.1838 36.6063 93.1838 38.2414 92.1756 39.2502L88.9904 42.4353L50.5034 3.94245L53.688 0.756117Z" fill="black"/>
<path d="M61.0131 22.2828L39.8008 1.07695C38.7926 0.0687988 37.1564 0.0687982 36.1494 1.07813L1.75597 35.4926C0.747814 36.5014 0.747815 38.1365 1.75714 39.1446L21.1455 58.526C22.1537 59.5335 23.7858 59.5347 24.7957 58.5271L46.9259 36.4398L69.1212 58.54C70.1275 59.5423 71.7533 59.5435 72.762 58.5424L84.8833 46.5108L61.0131 22.2828ZM29.884 36.9559C25.8907 36.9559 22.783 33.7045 22.783 29.8548C22.783 26.0034 25.8907 22.7532 29.884 22.7532C33.8774 22.7532 36.9851 26.004 36.9851 29.8548C36.9839 33.7056 33.8762 36.9559 29.884 36.9559Z" fill="black"/>
<path d="M32.4299 30.4688C32.4229 30.1357 32.288 29.8372 32.0247 29.5739C31.8282 29.3768 31.6159 29.2618 31.3895 29.2284C31.159 29.1921 30.9391 29.205 30.7292 29.2683C30.5221 29.3287 30.2606 29.4266 29.9439 29.5633C29.6536 29.6929 29.4319 29.785 29.2788 29.8384C29.1251 29.8847 28.9903 29.9029 28.8735 29.8935C28.7604 29.88 28.6536 29.8231 28.5533 29.7234C28.4132 29.5832 28.3533 29.4266 28.3733 29.253C28.3932 29.0795 28.4337 28.893 28.7668 28.5592L29.4295 27.8965L28.9897 27.4567L28.5035 27.9429C28.48 27.9528 28.4618 27.9511 28.4483 27.9382L28.083 27.5528C28.0665 27.5364 28.0466 27.5294 28.0226 27.5329C27.9991 27.5294 27.9792 27.5364 27.9627 27.5528L27.5721 27.9429C27.5557 27.9599 27.5475 27.981 27.5475 28.008C27.5475 28.0279 27.5557 28.0461 27.5721 28.0631L27.9522 28.4232C27.9651 28.4367 27.9668 28.4549 27.9569 28.4783C27.7299 28.785 27.6202 29.0988 27.6267 29.419C27.6367 29.7357 27.7686 30.0207 28.022 30.2741C28.2184 30.4712 28.4308 30.5896 28.6571 30.6289C28.8806 30.6659 29.1005 30.6524 29.3169 30.5896C29.5339 30.5263 29.7972 30.426 30.1075 30.2894C30.3908 30.1726 30.6095 30.0905 30.7626 30.0442C30.9162 29.9908 31.0529 29.9709 31.1731 29.9838C31.2898 29.9938 31.3948 30.0454 31.4881 30.1392C31.6247 30.2753 31.6863 30.4377 31.6728 30.6242C31.6628 30.8072 31.5848 31.026 31.3878 31.2224L30.4213 32.1544L30.8388 32.6042L31.5027 32.0054C31.5262 31.9954 31.5444 31.9972 31.5578 32.0107L31.888 32.3508C31.9045 32.3672 31.9232 32.3755 31.9432 32.3755C31.9696 32.3755 31.9918 32.3672 32.0083 32.3508L32.3989 31.9608C32.4153 31.9438 32.4223 31.9245 32.4188 31.9004C32.4217 31.8769 32.4153 31.857 32.3989 31.84L32.064 31.5145C32.0505 31.5016 32.0487 31.4828 32.0587 31.4594C32.3132 31.1321 32.437 30.8019 32.4299 30.4688Z" fill="black"/>
</svg>
