<svg width="150" height="34" viewBox="0 0 150 34" fill="none" xmlns="http://www.w3.org/2000/svg">
<path d="M0 0.510237H5.61259V32.57H0V0.510237Z" fill="#292B83"/>
<path d="M21.1439 10.3748V32.57H15.5313V10.4173L21.1439 10.3748Z" fill="#292B83"/>
<path d="M51.5145 10.3748L43.3083 32.57H36.335L28.1287 10.3748H33.8264L39.9067 27.8929L45.987 10.3748H51.5145Z" fill="#292B83"/>
<path d="M65.5703 33.0803C64.0963 33.0803 62.6506 32.8819 61.2333 32.485C59.816 32.0598 58.4837 31.4645 57.2364 30.6992V25.3842C58.597 26.4047 59.8868 27.1559 61.1057 27.6378C62.3246 28.1196 63.6427 28.3606 65.06 28.3606C66.5057 28.3606 67.5687 28.1763 68.249 27.8078C68.9577 27.4393 69.312 26.8724 69.312 26.1071C69.312 25.37 68.9718 24.8315 68.2915 24.4913C67.6396 24.1228 66.5907 23.7685 65.1451 23.4283C63.5577 23.0315 62.2679 22.6346 61.2758 22.2378C60.2837 21.8126 59.4191 21.1323 58.6821 20.1968C57.9734 19.2614 57.6191 18 57.6191 16.4126C57.6191 14.4283 58.427 12.8409 60.0427 11.6504C61.6868 10.4598 63.8837 9.86456 66.6333 9.86456C67.9655 9.86456 69.1986 10.0205 70.3325 10.3323C71.4663 10.6157 72.6285 11.0976 73.8191 11.7779V16.9653C72.6002 16.1149 71.4663 15.5055 70.4175 15.137C69.3687 14.7685 68.249 14.5842 67.0585 14.5842C65.7545 14.5842 64.7482 14.7543 64.0396 15.0945C63.3309 15.4063 62.9766 15.874 62.9766 16.4976C62.9766 17.1212 63.2742 17.589 63.8695 17.9008C64.4931 18.1842 65.4711 18.4819 66.8033 18.7937C68.3907 19.1338 69.7089 19.5307 70.7577 19.9842C71.8348 20.4094 72.7561 21.1181 73.5214 22.1102C74.2868 23.074 74.6695 24.4204 74.6695 26.1496C74.6695 27.4819 74.2868 28.6866 73.5214 29.7637C72.7561 30.8126 71.6789 31.6346 70.29 32.2299C68.901 32.7968 67.3278 33.0803 65.5703 33.0803Z" fill="#292B83"/>
<path d="M90.4443 33.0803C88.9702 33.0803 87.5246 32.8819 86.1073 32.485C84.6899 32.0598 83.3577 31.4645 82.1104 30.6992V25.3842C83.471 26.4047 84.7608 27.1559 85.9797 27.6378C87.1986 28.1196 88.5167 28.3606 89.934 28.3606C91.3797 28.3606 92.4427 28.1763 93.123 27.8078C93.8317 27.4393 94.186 26.8724 94.186 26.1071C94.186 25.37 93.8458 24.8315 93.1655 24.4913C92.5135 24.1228 91.4647 23.7685 90.0191 23.4283C88.4317 23.0315 87.1419 22.6346 86.1498 22.2378C85.1577 21.8126 84.2931 21.1323 83.5561 20.1968C82.8474 19.2614 82.4931 18 82.4931 16.4126C82.4931 14.4283 83.301 12.8409 84.9167 11.6504C86.5608 10.4598 88.7577 9.86456 91.5073 9.86456C92.8395 9.86456 94.0726 10.0205 95.2065 10.3323C96.3403 10.6157 97.5025 11.0976 98.6931 11.7779V16.9653C97.4742 16.1149 96.3403 15.5055 95.2915 15.137C94.2427 14.7685 93.123 14.5842 91.9325 14.5842C90.6285 14.5842 89.6222 14.7543 88.9136 15.0945C88.2049 15.4063 87.8506 15.874 87.8506 16.4976C87.8506 17.1212 88.1482 17.589 88.7435 17.9008C89.3671 18.1842 90.3451 18.4819 91.6773 18.7937C93.2647 19.1338 94.5828 19.5307 95.6317 19.9842C96.7088 20.4094 97.6301 21.1181 98.3954 22.1102C99.1608 23.074 99.5435 24.4204 99.5435 26.1496C99.5435 27.4819 99.1608 28.6866 98.3954 29.7637C97.6301 30.8126 96.5529 31.6346 95.1639 32.2299C93.775 32.7968 92.2017 33.0803 90.4443 33.0803Z" fill="#292B83"/>
<path d="M115.063 10.3748H120.165V14.5417H115.063V25.2567C115.063 27.411 115.885 28.4882 117.529 28.4882C118.295 28.4882 119.188 28.2189 120.208 27.6803V32.3149C119.499 32.57 118.833 32.7543 118.21 32.8677C117.614 33.0094 116.934 33.0803 116.169 33.0803C111.69 33.0803 109.451 30.4724 109.451 25.2567V14.5417H106.219V10.3748H109.451V4.42204L115.063 2.46614V10.3748Z" fill="#292B83"/>
<path d="M144.387 0.510237H150V32.57H144.387V0.510237Z" fill="#292B83"/>
<rect x="128.664" y="9.89288" width="5.66929" height="22.6771" fill="#292B83"/>
</svg>
