{
  "accessors": [
    {
      "bufferView": 2,
      "componentType": 5126,
      "count": 40968,
      "max": [
        0.66825300455093384,
        3.2528119087219238,
        2.2060348987579346
      ],
      "min": [
        -1.2339999675750732,
        -2.0257630348205566,
        0.046796001493930817
      ],
      "type": "VEC3"
    },
    {
      "bufferView": 2,
      "byteOffset": 491616,
      "componentType": 5126,
      "count": 40968,
      "max": [
        0.9999992847442627,
        0.99990260601043701,
        0.99999845027923584
      ],
      "min": [
        -0.9999929666519165,
        -0.99974578619003296,
        -0.9999927282333374
      ],
      "type": "VEC3"
    },
    {
      "bufferView": 3,
      "componentType": 5126,
      "count": 40968,
      "max": [
        0.99945855140686035,
        0.99999886751174927,
        0.99938011169433594,
        1
      ],
      "min": [
        -0.99986720085144043,
        -0.99989032745361328,
        -0.99999541044235229,
        -1
      ],
      "type": "VEC4"
    },
    {
      "bufferView": 1,
      "componentType": 5126,
      "count": 40968,
      "max": [
        0.98220998048782349,
        0.99986100196838379
      ],
      "min": [
        0,
        0
      ],
      "type": "VEC2"
    },
    {
      "bufferView": 0,
      "componentType": 5125,
      "count": 233961,
      "max": [
        40967
      ],
      "min": [
        0
      ],
      "type": "SCALAR"
    }
  ],
  "asset": {
    "extras": {
      "author": "thesidekick (https://sketchfab.com/thesidekick)",
      "license": "CC-BY-4.0 (http://creativecommons.org/licenses/by/4.0/)",
      "source": "https://sketchfab.com/3d-models/unused-blue-vans-shoe-96baa4684df7415ba8ba87d39bd1c2ee",
      "title": "Unused Blue Vans Shoe"
    },
    "generator": "Sketchfab-8.74.0",
    "version": "2.0"
  },
  "bufferViews": [
    {
      "buffer": 0,
      "byteLength": 935844,
      "byteOffset": 0,
      "name": "floatBufferViews",
      "target": 34963
    },
    {
      "buffer": 0,
      "byteLength": 327744,
      "byteOffset": 935844,
      "byteStride": 8,
      "name": "floatBufferViews",
      "target": 34962
    },
    {
      "buffer": 0,
      "byteLength": 983232,
      "byteOffset": 1263588,
      "byteStride": 12,
      "name": "floatBufferViews",
      "target": 34962
    },
    {
      "buffer": 0,
      "byteLength": 655488,
      "byteOffset": 2246820,
      "byteStride": 16,
      "name": "floatBufferViews",
      "target": 34962
    }
  ],
  "buffers": [
    {
      "byteLength": 2902308,
      "uri": "scene.bin"
    }
  ],
  "images": [
    {
      "uri": "textures/Blue_Vans_Shoe_baseColor.jpeg"
    },
    {
      "uri": "textures/Blue_Vans_Shoe_metallicRoughness.png"
    },
    {
      "uri": "textures/Blue_Vans_Shoe_normal.png"
    }
  ],
  "materials": [
    {
      "doubleSided": true,
      "emissiveFactor": [
        0.3211247651418877,
        0.3211247651418877,
        0.3211247651418877
      ],
      "emissiveTexture": {
        "index": 0,
        "texCoord": 0
      },
      "name": "Blue_Vans_Shoe",
      "normalTexture": {
        "index": 2,
        "scale": 1,
        "texCoord": 0
      },
      "occlusionTexture": {
        "index": 1,
        "strength": 1,
        "texCoord": 0
      },
      "pbrMetallicRoughness": {
        "baseColorFactor": [
          1,
          1,
          1,
          1
        ],
        "baseColorTexture": {
          "index": 0,
          "texCoord": 0
        },
        "metallicFactor": 0,
        "metallicRoughnessTexture": {
          "index": 1,
          "texCoord": 0
        },
        "roughnessFactor": 1
      }
    }
  ],
  "meshes": [
    {
      "primitives": [
        {
          "attributes": {
            "NORMAL": 1,
            "POSITION": 0,
            "TANGENT": 2,
            "TEXCOORD_0": 3
          },
          "indices": 4,
          "material": 0,
          "mode": 4
        }
      ]
    }
  ],
  "nodes": [
    {
      "children": [
        1
      ],
      "name": "RootNode (gltf orientation matrix)",
      "rotation": [
        -0.70710678118654746,
        -0,
        -0,
        0.70710678118654757
      ]
    },
    {
      "children": [
        2
      ],
      "name": "RootNode (model correction matrix)"
    },
    {
      "children": [
        3
      ],
      "name": "Blue_Vans_Shoe_SF.obj.cleaner.materialmerger.gles"
    },
    {
      "mesh": 0,
      "name": ""
    }
  ],
  "samplers": [
    {
      "magFilter": 9729,
      "minFilter": 9987,
      "wrapS": 10497,
      "wrapT": 10497
    }
  ],
  "scene": 0,
  "scenes": [
    {
      "name": "OSG_Scene",
      "nodes": [
        0
      ]
    }
  ],
  "textures": [
    {
      "sampler": 0,
      "source": 0
    },
    {
      "sampler": 0,
      "source": 1
    },
    {
      "sampler": 0,
      "source": 2
    }
  ]
}

